<svg width="20" height="20" viewBox="0 0 20 20" fill="none" xmlns="http://www.w3.org/2000/svg">
<path fill-rule="evenodd" clip-rule="evenodd" d="M0.422043 0.197787C0.77039 -0.0554582 1.24075 -0.0664543 1.60072 0.170226C3.55113 1.45262 5.06963 1.93549 7.24766 1.93549C9.77239 1.93549 12.1985 2.4701 13.9762 4.23494C14.5805 4.83491 15.0619 5.63779 15.4438 6.43981C15.831 7.2532 16.145 8.12861 16.3907 8.92259C16.6371 9.71914 16.8199 10.4507 16.941 10.9827C17.0011 11.2463 17.0463 11.4622 17.077 11.6145L19.5741 14.8474C20.2038 15.6627 20.1276 16.815 19.3959 17.5414L17.5237 19.4002C16.7656 20.1528 15.5532 20.2034 14.7343 19.5165L11.7076 16.978C11.558 16.9602 11.3625 16.9352 11.1312 16.9015C10.5854 16.8223 9.83385 16.6944 9.01225 16.4994C7.43568 16.1252 5.35313 15.4501 4.1082 14.2141C2.17566 12.2954 1.48998 10.038 1.11059 7.81122C0.982003 7.05659 0.883962 6.27127 0.788303 5.50515C0.745578 5.16294 0.703328 4.82455 0.659056 4.49446C0.512175 3.39943 0.337037 2.33837 0.0397267 1.30505C-0.0788674 0.8929 0.0737066 0.451023 0.422043 0.197787ZM13.6551 15.9307L16.0652 17.9523L17.9374 16.0935L16.0077 13.5951L13.6551 15.9307ZM14.9903 11.7093C14.9724 11.6259 14.952 11.5339 14.9293 11.4344C14.8162 10.938 14.6463 10.2585 14.419 9.52379C14.191 8.78653 13.9102 8.01046 13.5791 7.31487C13.2425 6.60792 12.8818 6.04429 12.5178 5.68286C11.2958 4.46962 9.52242 3.98316 7.24766 3.98316C5.45359 3.98316 3.99288 3.69124 2.52681 3.03174C2.59357 3.43406 2.65095 3.83226 2.70351 4.22415C2.75332 4.59556 2.79829 4.95604 2.84233 5.30913C2.93487 6.051 3.02333 6.76027 3.1442 7.46967C3.49364 9.52062 4.07477 11.285 5.56661 12.7662C6.36701 13.5608 7.93212 14.1377 9.49189 14.5079C10.2384 14.685 10.9272 14.8025 11.4297 14.8755C11.5502 14.893 11.6595 14.9078 11.756 14.9203L14.9903 11.7093Z" fill="black"/>
</svg>
