<svg width="18" height="24" viewBox="0 0 18 24" fill="none" xmlns="http://www.w3.org/2000/svg">
<path d="M9 12H4.5V15.75M9 12H13.5V15.75M9 12V19.5M4.5 15.75V19.5H9M4.5 15.75H13.5M13.5 15.75V19.5H9" stroke="#A82230" stroke-width="1.5" stroke-linejoin="round"/>
<path fill-rule="evenodd" clip-rule="evenodd" d="M2.17241 1.8C2.09011 1.8 2.01117 1.83161 1.95297 1.88787C1.89477 1.94413 1.86207 2.02044 1.86207 2.1V21.9C1.86207 21.9796 1.89477 22.0559 1.95297 22.1121C2.01117 22.1684 2.09011 22.2 2.17241 22.2H15.8276C15.9099 22.2 15.9888 22.1684 16.047 22.1121C16.1052 22.0559 16.1379 21.9796 16.1379 21.9V6.9H11.7931C11.5462 6.9 11.3094 6.80518 11.1348 6.6364C10.9602 6.46761 10.8621 6.2387 10.8621 6V1.8H2.17241ZM12.7241 3.07275L14.8213 5.1H12.7241V3.07275ZM0 2.1C0 0.9402 0.972621 0 2.17241 0H11.7931C12.04 0 12.2768 0.0948 12.4515 0.26355L17.7274 5.36355C17.8138 5.44713 17.8824 5.54636 17.9292 5.65556C17.9759 5.76476 18 5.88181 18 6V21.9C18 23.0598 17.0274 24 15.8276 24H2.17241C0.972621 24 0 23.0598 0 21.9V2.1Z" fill="#A82230"/>
</svg>
