<svg width="26" height="26" viewBox="0 0 26 26" fill="none" xmlns="http://www.w3.org/2000/svg">
<path d="M13 18.3333V25M20.2 25L15.4583 20.6096C14.5838 19.7997 14.1465 19.3949 13.6584 19.2401C13.228 19.1037 12.772 19.1037 12.3416 19.2401C11.8535 19.3949 11.4162 19.7997 10.5417 20.6096L5.8 25M8.2 11.6667V13M13 9V13M17.8 6.33333V13M25 1H1M2.2 1H23.8V11.9333C23.8 14.1736 23.8 15.2936 23.4076 16.1493C23.0625 16.902 22.5118 17.5139 21.8344 17.8973C21.0642 18.3333 20.0562 18.3333 18.04 18.3333H7.96C5.94381 18.3333 4.93571 18.3333 4.16564 17.8973C3.48825 17.5139 2.93752 16.902 2.59238 16.1493C2.2 15.2936 2.2 14.1736 2.2 11.9333V1Z" stroke="#A82230" stroke-width="1.5" stroke-linecap="round" stroke-linejoin="round"/>
</svg>
